<svg width="30" height="30" viewBox="0 0 30 30" fill="none" xmlns="http://www.w3.org/2000/svg">
<path d="M22.2913 8.24375V10.0888C22.2913 10.385 22.05 10.625 21.7475 10.625H19.9163C19.6187 10.625 19.3737 10.385 19.3737 10.0888V8.24375C19.3737 7.9475 19.6175 7.70875 19.9163 7.70875H21.7475C22.05 7.70875 22.2913 7.9475 22.2913 8.24375ZM15 17.6163C16.4013 17.6163 17.535 16.4813 17.535 15.08C17.535 13.6788 16.4013 12.5437 15 12.5437C13.5988 12.5437 12.465 13.6788 12.465 15.08C12.465 16.4813 13.5988 17.6163 15 17.6163ZM30 15C30 23.2838 23.2838 30 15 30C6.71625 30 0 23.2838 0 15C0 6.71625 6.71625 0 15 0C23.2838 0 30 6.71625 30 15ZM23.75 12.8125H18.8088C19.2038 13.4788 19.4438 14.2487 19.4438 15.0787C19.4438 17.5387 17.4487 19.5338 14.99 19.5338C12.5287 19.5338 10.535 17.5387 10.535 15.0787C10.535 14.2475 10.7738 13.4775 11.1713 12.8125H6.25V20.3075C6.25 22.2087 7.8375 23.75 9.73875 23.75H20.3063C22.2075 23.75 23.75 22.2087 23.75 20.3075V12.8125ZM14.9888 18.5112C16.8825 18.5112 18.42 16.9713 18.42 15.0787C18.42 14.0512 17.965 13.1288 17.2487 12.5C16.9963 12.2788 16.7125 12.095 16.4025 11.9537C15.97 11.7575 15.4913 11.6475 14.9875 11.6475C14.4812 11.6475 14.0025 11.7575 13.5713 11.9537C13.2638 12.0938 12.9788 12.2788 12.7275 12.5C12.01 13.1288 11.555 14.0525 11.555 15.0787C11.5563 16.9713 13.0975 18.5112 14.9888 18.5112ZM23.75 9.6925C23.75 7.79125 22.2075 6.25 20.3063 6.25H11.3538V9.89625H10.625V6.25H9.89625V9.89625H9.16625V6.30625C8.91375 6.3475 8.67 6.41 8.4375 6.5025V9.89625H7.70875V6.905C6.83125 7.53 6.25 8.5425 6.25 9.6925V12.0838H11.6988C12.55 11.1488 13.74 10.625 14.9888 10.625C16.2437 10.625 17.4312 11.1525 18.2775 12.0838H23.75V9.6925Z" fill="#015980"/>
</svg>
